<svg width="96" height="96" viewBox="0 0 96 96" fill="none" xmlns="http://www.w3.org/2000/svg">
<rect x="2" y="2" width="92" height="92" fill="#18181B" stroke="black" stroke-width="4"/>
<g clip-path="url(#clip0_16_2)">
<path d="M39.63 22.2116C39.7328 21.8617 39.9463 21.5546 40.2383 21.3361C40.5304 21.1177 40.8853 20.9998 41.25 21H54.75C55.0172 21.0002 55.2806 21.0639 55.5184 21.1858C55.7563 21.3077 55.9617 21.4843 56.1179 21.7012C56.2741 21.918 56.3766 22.1688 56.4169 22.433C56.4572 22.6972 56.4342 22.9672 56.3497 23.2208L50.3422 41.25H63.1875C63.5035 41.2498 63.8132 41.3383 64.0814 41.5055C64.3496 41.6727 64.5654 41.9118 64.7043 42.1956C64.8433 42.4795 64.8997 42.7966 64.8672 43.1109C64.8347 43.4253 64.7147 43.7242 64.5206 43.9736L40.8956 74.3486C40.6536 74.6613 40.3095 74.8791 39.9233 74.9639C39.5371 75.0487 39.1334 74.9953 38.7826 74.8129C38.4318 74.6304 38.1562 74.3306 38.0039 73.9657C37.8516 73.6008 37.8322 73.1941 37.9492 72.8164L44.0276 53.0625H32.8125C32.5501 53.0627 32.2914 53.0016 32.0567 52.8843C31.8221 52.7669 31.618 52.5965 31.4607 52.3865C31.3035 52.1765 31.1974 51.9327 31.1508 51.6745C31.1042 51.4163 31.1185 51.1508 31.1925 50.8991L39.63 22.2116Z" fill="#FFD230"/>
</g>
<defs>
<clipPath id="clip0_16_2">
<rect width="54" height="54" fill="white" transform="translate(21 21)"/>
</clipPath>
</defs>
</svg>
