<svg width="303" height="96" viewBox="0 0 303 96" fill="none" xmlns="http://www.w3.org/2000/svg">
<rect width="303" height="96" fill="#FFD230"/>
<path d="M143.544 69.768C140.941 69.768 138.595 69.384 136.504 68.616C134.456 67.8053 132.707 66.6533 131.256 65.16C129.848 63.6667 128.76 61.8533 127.992 59.72C127.224 57.5867 126.84 55.176 126.84 52.488C126.84 49.8 127.224 47.3893 127.992 45.256C128.76 43.1227 129.848 41.3093 131.256 39.816C132.707 38.3227 134.456 37.192 136.504 36.424C138.595 35.6133 140.92 35.208 143.48 35.208C147.107 35.208 150.008 35.9547 152.184 37.448C154.403 38.8987 156.088 40.84 157.24 43.272L149.944 47.24C149.347 45.96 148.557 44.8933 147.576 44.04C146.637 43.1867 145.272 42.76 143.48 42.76C141.304 42.76 139.619 43.4 138.424 44.68C137.272 45.9173 136.696 47.624 136.696 49.8V55.176C136.696 57.352 137.272 59.08 138.424 60.36C139.619 61.5973 141.347 62.216 143.608 62.216C145.443 62.216 146.872 61.7893 147.896 60.936C148.963 60.0827 149.859 58.9733 150.584 57.608L157.752 61.704C156.557 64.136 154.808 66.0987 152.504 67.592C150.243 69.0427 147.256 69.768 143.544 69.768ZM181.919 69.768C179.316 69.768 176.97 69.384 174.879 68.616C172.831 67.8053 171.082 66.6533 169.631 65.16C168.223 63.6667 167.135 61.8533 166.367 59.72C165.599 57.5867 165.215 55.176 165.215 52.488C165.215 49.8 165.599 47.3893 166.367 45.256C167.135 43.1227 168.223 41.3093 169.631 39.816C171.082 38.3227 172.831 37.192 174.879 36.424C176.97 35.6133 179.295 35.208 181.855 35.208C185.482 35.208 188.383 35.9547 190.559 37.448C192.778 38.8987 194.463 40.84 195.615 43.272L188.319 47.24C187.722 45.96 186.932 44.8933 185.951 44.04C185.012 43.1867 183.647 42.76 181.855 42.76C179.679 42.76 177.994 43.4 176.799 44.68C175.647 45.9173 175.071 47.624 175.071 49.8V55.176C175.071 57.352 175.647 59.08 176.799 60.36C177.994 61.5973 179.722 62.216 181.983 62.216C183.818 62.216 185.247 61.7893 186.271 60.936C187.338 60.0827 188.234 58.9733 188.959 57.608L196.127 61.704C194.932 64.136 193.183 66.0987 190.879 67.592C188.618 69.0427 185.631 69.768 181.919 69.768ZM201.67 69V35.976H209.286V40.84H209.734C210.246 39.304 210.971 37.9813 211.91 36.872C212.891 35.7627 214.257 35.208 216.006 35.208C219.206 35.208 221.169 37.0853 221.894 40.84H222.278C222.534 40.072 222.854 39.3467 223.238 38.664C223.622 37.9813 224.091 37.384 224.646 36.872C225.201 36.36 225.862 35.9547 226.63 35.656C227.398 35.3573 228.294 35.208 229.318 35.208C233.926 35.208 236.23 38.6 236.23 45.384V69H228.614V46.344C228.614 44.808 228.337 43.7413 227.782 43.144C227.27 42.504 226.587 42.184 225.734 42.184C224.923 42.184 224.219 42.4613 223.622 43.016C223.067 43.528 222.79 44.3387 222.79 45.448V69H215.11V46.344C215.11 44.808 214.854 43.7413 214.342 43.144C213.873 42.504 213.211 42.184 212.358 42.184C211.505 42.184 210.779 42.4613 210.182 43.016C209.585 43.528 209.286 44.3387 209.286 45.448V69H201.67ZM263.277 62.984H262.829C261.976 64.9893 260.781 66.632 259.245 67.912C257.752 69.1493 255.682 69.768 253.037 69.768C251.202 69.768 249.517 69.4267 247.981 68.744C246.488 68.0613 245.186 67.016 244.077 65.608C243.01 64.2 242.157 62.408 241.517 60.232C240.92 58.056 240.621 55.4747 240.621 52.488C240.621 49.5013 240.92 46.92 241.517 44.744C242.157 42.568 243.01 40.776 244.077 39.368C245.186 37.96 246.488 36.9147 247.981 36.232C249.517 35.5493 251.202 35.208 253.037 35.208C254.36 35.208 255.533 35.3787 256.557 35.72C257.581 36.0613 258.477 36.5307 259.245 37.128C260.056 37.7253 260.738 38.4507 261.293 39.304C261.89 40.1147 262.402 41.0107 262.829 41.992H263.277V21.64H272.749V69H263.277V62.984ZM257.133 62.408C258.797 62.408 260.226 62.0027 261.421 61.192C262.658 60.3813 263.277 59.1013 263.277 57.352V47.624C263.277 45.8747 262.658 44.5947 261.421 43.784C260.226 42.9733 258.797 42.568 257.133 42.568C255 42.568 253.357 43.2293 252.205 44.552C251.053 45.832 250.477 47.624 250.477 49.928V55.048C250.477 57.352 251.053 59.1653 252.205 60.488C253.357 61.768 255 62.408 257.133 62.408Z" fill="#18181B"/>
<rect width="96" height="96" fill="#18181B"/>
<g clip-path="url(#clip0_1_10)">
<path d="M39.63 22.2116C39.7328 21.8617 39.9463 21.5546 40.2383 21.3361C40.5304 21.1177 40.8853 20.9998 41.25 21H54.75C55.0172 21.0002 55.2806 21.0639 55.5184 21.1858C55.7563 21.3077 55.9617 21.4843 56.1179 21.7012C56.2741 21.918 56.3766 22.1688 56.4169 22.433C56.4572 22.6972 56.4342 22.9672 56.3497 23.2208L50.3422 41.25H63.1875C63.5035 41.2498 63.8132 41.3383 64.0814 41.5055C64.3496 41.6727 64.5654 41.9118 64.7043 42.1956C64.8433 42.4795 64.8997 42.7966 64.8672 43.1109C64.8347 43.4253 64.7147 43.7242 64.5206 43.9736L40.8956 74.3486C40.6536 74.6613 40.3095 74.8791 39.9233 74.9639C39.5371 75.0487 39.1334 74.9953 38.7826 74.8129C38.4318 74.6304 38.1562 74.3306 38.0039 73.9657C37.8516 73.6008 37.8322 73.1941 37.9492 72.8164L44.0276 53.0625H32.8125C32.5501 53.0627 32.2914 53.0016 32.0567 52.8843C31.8221 52.7669 31.618 52.5965 31.4607 52.3865C31.3035 52.1765 31.1974 51.9327 31.1508 51.6745C31.1042 51.4163 31.1185 51.1508 31.1925 50.8991L39.63 22.2116Z" fill="#FFD230"/>
</g>
<defs>
<clipPath id="clip0_1_10">
<rect width="54" height="54" fill="white" transform="translate(21 21)"/>
</clipPath>
</defs>
</svg>
